<?xml version="1.0" encoding="UTF-8"?>
<svg xmlns="http://www.w3.org/2000/svg" xml:space="preserve" version="1.1" style="shape-rendering:geometricPrecision; text-rendering:geometricPrecision; image-rendering:optimizeQuality; fill-rule:evenodd; clip-rule:evenodd"
viewBox="0 0 32000 35950"
 xmlns:xlink="http://www.w3.org/1999/xlink">
 <defs>
  <style type="text/css">
   <![CDATA[
    .coleteonline-fil0 {fill:#000}
    .coleteonline-fil1 {fill:#e74c3c}
   ]]>
  </style>
 </defs>
 <g id="Layer_x0020_1">
  <metadata id="CorelCorpID_0Corel-Layer"/>
  <g id="_2143670006912">
   <path class="coleteonline-fil0" d="M3968 34755c-133,-701 939,-892 1056,-207 124,729 -931,865 -1056,207zm15228 -743l154 -73c223,-28 412,41 485,246l-20 -16c30,21 158,11 131,372 -37,454 -658,615 -796,364 -361,-25 -350,-656 -110,-842 110,-85 13,-44 156,-51zm-8880 -22546c697,-223 941,828 320,1012 -683,203 -1024,-786 -320,-1012zm-9165 -3815c0,-485 179,-863 432,-1083 313,-274 2604,-1127 3158,-1357 1421,-587 2857,-1148 4294,-1721 1440,-577 2843,-1159 4296,-1720 702,-269 1557,-770 2263,-557 334,102 741,274 1091,414 181,74 890,320 1025,451l-3732 1502c-1240,481 -2496,1017 -3745,1497l-4692 1882c-903,381 -1554,1189 -1547,2323l2 18397c-382,-88 -851,-412 -1129,-601 -923,-623 -1716,-2008 -1716,-3362l0 -16065zm29795 -6355c113,-34 212,-87 423,46 115,74 196,159 235,325 67,294 -113,570 -375,637 -609,158 -920,-633 -471,-941 152,-104 66,-30 188,-67zm702 1688c308,-177 434,-253 593,-565 421,-824 -92,-1912 -1124,-1937 -1072,-25 -1640,1122 -1185,1953 150,273 308,384 580,540 66,789 9,1840 9,2657l0 13187c0,1555 186,3636 -437,4812 -775,1462 -1504,1704 -2969,2313 -1249,520 -2521,994 -3774,1514 -1240,513 -2530,1000 -3775,1506l-2824 1132c-246,106 -697,329 -941,283 -112,-348 -50,-2694 -50,-3271l0 -13401c-3,-541 53,-918 349,-1222 154,-156 341,-220 488,-303 172,-97 338,-159 554,-242 1615,-623 3183,-1295 4786,-1918l5980 -2399c706,-276 1980,-517 1739,-1596 -117,-522 -421,-584 -897,-779 -3951,-1624 -7955,-3174 -11934,-4784 -911,-371 -1601,-699 -2668,-237 -1566,676 -3209,1262 -4784,1918 -2369,989 -4807,1909 -7183,2873 -945,384 -1504,600 -1899,1409 -398,810 -258,2073 -258,3071 0,1801 -69,14307 41,15020 7,56 17,132 26,180l142 506c398,1134 1086,2208 2096,2889l533 324c331,202 752,349 1134,494l0 4469c-71,131 -244,179 -340,260 -359,287 -536,717 -454,1228 230,1398 2128,1424 2551,179 219,-644 -117,-1219 -621,-1552l0 -4103c228,23 5823,2286 6474,2567 1608,690 3266,1272 4883,1952 497,210 1099,476 1596,640 207,1589 2298,1633 2613,184 253,-1157 -1017,-1891 -1902,-1429 -458,240 -214,233 -798,-2 -922,-368 -6152,-2527 -6967,-2783l0 -17286c67,-292 950,-453 718,-1562 -278,-1324 -2242,-1329 -2555,-34 -173,718 230,1281 706,1509l-2 16895c-490,-131 -1873,-727 -2422,-952 -752,-311 -1652,-619 -2344,-957 -71,-5430 -2,-10883 -2,-16318 0,-3632 -428,-3296 2166,-4349l6997 -2801c1552,-640 3118,-1270 4664,-1866 303,-117 253,-161 579,-27 2126,862 4294,1688 6413,2566 411,173 772,304 1166,472 283,120 876,306 1108,455 -216,129 -653,283 -936,394l-6598 2638c-1258,508 -2500,1005 -3772,1515 -1523,612 -2316,973 -2295,2979 55,5280 0,10570 0,15851 0,441 -37,851 135,1186 134,260 417,520 709,626 660,241 1426,-216 2017,-446 1274,-497 2525,-1010 3774,-1511 1272,-509 2511,-987 3774,-1511 1263,-525 2539,-957 3774,-1514 731,-329 1403,-945 1812,-1538 474,-686 858,-1465 969,-2298 122,-911 57,-2843 57,-3818l0 -10568c0,-1394 -60,-4027 5,-5267z"/>
   <path class="coleteonline-fil1" d="M16436 12968l2 16486c327,-83 9550,-3827 10812,-4319 320,-124 686,-239 957,-421 186,-124 409,-253 584,-444 304,-333 499,-554 711,-1012l186 -506c35,-138 101,-430 124,-533l7 -1210c0,-4395 -43,-9027 5,-13395l-13388 5354z"/>
   <path class="coleteonline-fil1" d="M5640 27582l3703 1506c72,-1251 14,-4082 14,-5501l0 -9667c5,-703 25,-209 -476,-929 -936,-1343 336,-3256 2035,-2858 1171,273 1935,1727 1063,2959 -481,679 -403,-114 -403,1645l0 9708c0,1819 -52,3719 5,5527l2341 952 0 -13866c0,-1213 -117,-3547 122,-4520 141,-575 495,-1104 867,-1453 382,-359 893,-578 1502,-819l6626 -2659c734,-292 2733,-1134 3324,-1320l-1042 -446c-1808,-711 -4119,-1608 -5860,-2348 -550,-233 -546,-74 -1643,361l-10680 4268c-1376,555 -1459,421 -1461,1548l-37 14904c-2,940 -66,2095 0,3008z"/>
   <path class="coleteonline-fil1" d="M3451 9454c7,-1644 743,-2551 1946,-3024 1200,-474 2352,-946 3558,-1429l7104 -2863c-110,-62 -782,-340 -888,-340l-2686 1060c-2401,950 -4731,1925 -7118,2852 -601,232 -1173,487 -1778,715 -295,110 -610,237 -893,352 -239,99 -664,235 -848,359 -65,1711 0,3555 0,5283l0 10524c0,1060 -60,1440 347,2272 177,361 552,874 853,1123l334 269 69 -17153z"/>
  </g>
 </g>
</svg>
